<svg width="204" height="195" xmlns="http://www.w3.org/2000/svg" xmlns:xlink="http://www.w3.org/1999/xlink" xml:space="preserve" overflow="hidden"><defs><clipPath id="clip0"><rect x="236" y="317" width="204" height="195"/></clipPath><clipPath id="clip1"><rect x="236" y="317" width="204" height="195"/></clipPath><clipPath id="clip2"><rect x="237" y="318" width="202" height="194"/></clipPath><clipPath id="clip3"><rect x="237" y="318" width="202" height="194"/></clipPath></defs><g clip-path="url(#clip0)" transform="translate(-236 -317)"><g clip-path="url(#clip1)"><g clip-path="url(#clip2)"><g clip-path="url(#clip3)"><g><path d="M46.4157 145.344C46.1733 145.146 45.9002 144.988 45.6068 144.878 45.2957 144.878 45.2646 144.878 44.9846 144.878 44.7102 144.868 44.4657 145.049 44.3935 145.313 44.1446 145.904 44.7668 146.651 45.8246 147.149 46.8823 147.647 47.4112 145.904 46.4157 145.22M67.0725 161.086C66.8547 160.713 67.5702 159.81 66.5125 159.81 66.2036 159.758 65.8881 159.758 65.5792 159.81 65.3926 159.81 65.0815 160.619 65.0192 160.588 64.2029 160.225 63.3608 159.923 62.4994 159.686 61.3794 159.406 60.7572 158.597 59.855 158.877 59.4935 158.94 59.146 159.066 58.8284 159.25 58.4016 159.597 58.3366 160.224 58.6834 160.651 58.7808 160.771 58.9053 160.867 59.0462 160.93 59.3262 161.117 61.255 160.93 62.1572 160.93 63.0593 160.93 63.9304 161.366 63.9926 161.739 64.0548 162.113 63.806 162.237 63.4638 162.486 62.6904 163.043 61.7045 163.215 60.7883 162.953 60.7883 162.953 60.7883 162.673 60.7883 162.517 60.7883 162.361 61.7527 162.268 61.7838 162.144 61.8149 162.019 60.7883 161.646 59.855 161.553 59.5349 161.509 59.2108 161.509 58.8906 161.553 57.5274 162.199 56.5076 163.4 56.0908 164.85 55.6552 166.188 55.0641 167.183 55.7486 167.775 56.433 168.366 57.0241 167.588 57.6151 166.095 57.9723 165.542 58.4949 165.118 59.1084 164.881 59.5775 164.306 60.4191 164.21 61.0061 164.664 61.0061 164.664 61.0061 164.975 60.6328 164.975 60.2019 164.955 59.7869 165.139 59.5128 165.472 59.5128 165.784 59.5128 166.188 59.5128 166.592 59.5128 166.997 58.6418 166.903 59.2017 167.775 59.2017 167.775 58.704 168.055 58.5173 167.775 58.3307 167.495 58.5173 167.526 58.5173 167.495 58.5173 167.463 57.7085 168.086 57.6151 168.148 57.0689 168.535 56.4407 168.79 55.7797 168.894 54.488 169.236 53.2203 169.662 51.9843 170.17 50.8954 170.668 51.051 171.477 52.2643 172.005 52.7931 172.254 54.2864 171.601 55.0019 171.352 55.6571 171.058 56.3683 170.91 57.0863 170.917 57.584 170.917 55.4375 173.561 55.4686 174.028 55.4997 174.494 56.5263 175.459 56.9618 174.619 57.3974 173.779 57.3663 173.748 57.6463 173.157 57.9262 172.565 58.2684 172.254 58.4862 171.85 58.704 171.445 59.1395 170.73 59.2951 170.792 59.4506 170.854 59.575 171.508 59.9173 172.348 60.8443 174.46 62.4402 176.209 64.4593 177.325 65.517 177.854 66.357 177.325 65.9214 175.987L65.6725 175.303C65.4548 174.774 65.4548 175.303 64.4593 174.588 64.1793 174.37 62.9971 173.157 62.3749 172.597 61.9257 172.168 61.5567 171.662 61.2861 171.103 61.0994 170.668 60.5706 170.45 61.4727 170.046 62.3749 169.641 61.6283 169.143 62.0949 169.081 62.5616 169.019 63.2149 169.081 63.7126 169.081 64.2104 169.081 65.0815 168.49 66.0459 168.179 67.0103 167.868 68.1613 166.157 67.6947 165.441 67.228 164.726 66.6681 164.726 65.8281 164.228 64.9881 163.73 64.4593 164.508 64.9259 163.824 65.3926 163.139 65.2992 163.139 65.797 163.139 66.2947 163.139 68.908 164.352 69.1568 163.139 69.4057 161.926 67.5391 162.424 67.0725 161.615M65.3303 165.97C65.3303 166.748 64.0548 167.308 63.246 167.526 62.9349 167.526 62.5927 167.868 62.406 167.899 62.2194 167.93 61.9705 167.899 62.406 167.277 62.8416 166.655 63.246 166.406 62.8727 166.001 62.4994 165.597 63.1216 164.539 63.4638 164.85 63.806 165.161 65.2992 165.752 65.2992 165.97M90.2181 25.821 89.907 20.0346 92.1158 20.0346 96.1911 25.6033 99.3021 25.4477 94.9779 19.4436C95.7597 19.1376 96.4167 18.5791 96.8445 17.857 97.2797 17.0922 97.4747 16.2142 97.4044 15.3371 97.4231 14.1502 96.9232 13.0143 96.0356 12.2261 95.12 11.4552 93.9273 11.0952 92.738 11.2306L86.796 11.5728 87.6049 25.8521ZM92.7069 13.9371C93.2143 13.8732 93.7266 14.0069 94.1379 14.3105 94.5106 14.6165 94.7271 15.0727 94.729 15.5548 94.7856 16.0335 94.626 16.5126 94.2935 16.8615 93.918 17.2003 93.4305 17.3887 92.9246 17.3903L89.8137 17.577 89.5959 14.1238ZM47.7845 148.393C47.1623 148.393 47.7845 149.202 47.7845 149.326 47.7845 149.451 48.0645 149.326 48.1889 149.513 48.3133 149.7 48.9666 150.446 49.3089 150.509 50.5532 150.695 50.8643 149.762 50.0555 148.953 49.4124 148.379 48.5233 148.169 47.6911 148.393M92.2713 171.943C91.338 171.508 89.7826 172.41 89.4092 171.943 89.0359 171.477 89.627 171.29 89.6892 170.948 89.8118 170.485 89.5527 170.008 89.0981 169.859 88.8493 169.859 88.8493 169.454 89.0981 169.423 89.4702 169.383 89.846 169.383 90.2181 169.423 90.9395 169.637 91.7148 169.344 92.1158 168.708 92.2688 168.358 92.1665 167.949 91.8669 167.712 90.7852 167.355 89.6385 167.238 88.5071 167.37 86.8894 167.37 85.2094 167.37 84.8672 167.93 84.525 168.49 84.3695 168.552 84.1828 168.894 83.9962 169.237 83.7784 169.89 83.4673 170.108 82.5029 170.761 82.2229 172.13 82.0674 171.663 81.9118 171.197 81.4763 171.383 81.1963 171.321 80.9163 171.259 81.1963 170.917 81.1963 170.792 81.1963 170.668 81.3518 170.792 81.5696 170.792 82.1915 170.548 82.7014 170.083 83.0006 169.486 83.3117 168.397 83.7473 167.557 83.2495 166.903 82.7574 166.359 82.0546 166.053 81.3207 166.064 80.8236 166.036 80.3261 166.11 79.8586 166.281 79.143 166.592 78.8942 167.463 78.4586 168.552 78.1569 169.091 77.8968 169.653 77.6809 170.232 77.432 171.103 77.152 172.317 76.9965 172.939 76.6826 174.047 76.6826 175.221 76.9965 176.33 77.152 176.859 76.9965 177.574 77.7431 177.636 78.4897 177.699 78.0542 175.396 78.272 174.525 78.2888 174.131 78.4832 173.765 78.8008 173.53 78.8008 173.53 78.9875 173.281 79.1742 173.374 79.3608 173.468 79.1742 174.09 79.3297 174.09 79.4852 174.09 80.1385 173.436 80.5741 173.685 81.0096 173.934 80.4185 174.463 79.983 174.805 79.5475 175.148 78.7386 176.827 79.983 177.139 80.4808 177.139 81.0407 176.61 81.2896 175.925 81.5385 175.241 81.2896 175.054 81.6318 174.65 81.974 174.245 82.0674 174.245 82.2851 173.872 82.488 173.444 82.7166 173.028 82.9695 172.628 83.3428 172.099 83.8717 171.601 84.2139 171.197 84.5368 170.748 84.9248 170.349 85.365 170.014 85.7794 169.709 86.3256 169.65 86.796 169.859 87.076 170.046 85.9561 170.699 85.2717 171.321 84.3107 172.233 83.7043 173.457 83.5606 174.774 83.5606 175.365 83.1562 176.952 83.5606 177.325 83.7921 177.571 84.1293 177.687 84.4628 177.636 85.365 177.636 85.0539 175.863 85.5516 175.148 85.5516 175.148 85.7694 174.712 86.0183 174.836 85.9327 176.701 85.63 178.549 85.1161 180.343 84.898 181.4 84.7524 182.47 84.6806 183.547 84.6806 183.983 84.6806 184.418 85.2717 184.543 85.8627 184.667 86.5783 182.738 86.796 181.432 86.9198 180.343 87.2468 179.288 87.7604 178.321 88.4722 177.769 89.3228 177.424 90.2181 177.325 90.9336 177.17 91.5558 176.299 91.9602 175.956 92.5439 175.207 92.9483 174.335 93.1424 173.405 93.3599 172.845 93.0814 172.214 92.5208 171.996 92.5003 171.989 92.4791 171.981 92.458 171.974M80.6985 171.103C80.0371 171.302 79.5291 171.833 79.3608 172.503 79.3608 172.69 79.0497 172.503 79.0186 172.503 78.9144 171.894 79.0242 171.267 79.3297 170.73 79.8275 169.952 80.0141 169.33 80.4185 168.832 80.823 168.335 81.5696 167.961 81.694 168.117 81.8185 168.272 81.3207 168.801 81.2896 169.112 81.2986 169.59 81.1325 170.055 80.823 170.419 80.6363 170.73 81.2274 171.01 80.823 171.165M87.0449 171.943C86.6716 172.534 86.1738 172.783 85.925 172.503 85.6761 172.223 86.7027 171.414 87.1382 170.854 87.5738 170.294 87.7915 170.263 87.9782 170.419 88.1648 170.574 87.5738 171.134 87.0449 171.943M90.2181 175.459C89.6892 175.801 89.3781 175.956 89.0048 175.894 88.6315 175.832 88.4448 175.428 88.5693 175.241 88.6937 175.054 88.5693 174.525 88.787 174.214 89.0048 173.903 89.6892 173.903 90.1248 173.903 90.5603 173.903 91.0581 173.685 91.1203 174.121 90.9933 174.662 90.6723 175.138 90.2181 175.459M49.3089 151.006C48.4067 150.54 47.7534 150.166 47.5667 149.638 47.5667 149.638 47.3801 149.015 47.1934 148.953 47.0067 148.891 46.9445 149.202 46.6023 148.953 45.8799 148.221 45.0515 147.603 44.1446 147.118 43.7402 146.962 43.2425 146.122 42.7136 146.06 42.1847 145.998 40.9403 146.433 41.4381 147.491 41.6559 147.958 42.9936 147.833 44.0202 148.642 44.518 149.047 45.0468 148.642 45.2024 149.482 45.3579 150.322 45.2024 149.731 44.9846 149.731 43.8329 149.251 42.6476 148.856 41.4381 148.549 40.287 148.331 39.2604 148.144 38.8871 149.171 38.8871 149.389 38.8871 150.26 38.3582 150.042 37.6984 149.782 36.9648 149.782 36.305 150.042 36.0496 150.285 35.8107 150.545 35.5895 150.82 35.0917 151.504 35.9939 152.064 35.5895 152.282 35.1851 152.5 34.8428 151.94 34.2518 151.815 33.6607 151.691 33.4118 152.157 33.2563 152.375 33.1007 152.593 33.2563 152.78 33.8784 153.34 34.7153 154.117 35.699 154.72 36.7716 155.113 37.1926 155.308 37.5646 155.595 37.8605 155.953 38.0783 156.326 37.6116 156.637 37.145 156.388 36.6783 156.14 32.323 154.024 32.8207 156.388 33.0705 156.952 33.4821 157.428 34.0029 157.757 34.314 157.757 35.2784 158.037 35.3406 158.504 35.4028 158.97 33.9096 159.53 34.1895 160.433 34.4695 161.335 34.7184 161.459 35.0917 161.273 35.465 161.086 36.8028 159.593 37.145 159.624 38.1094 159.624 39.5715 161.988 40.5981 161.428 41.6248 160.868 41.6248 159.873 41.2514 159.624 40.4432 159.192 39.6732 158.692 38.9493 158.131 38.7627 157.913 39.136 157.633 39.4471 157.446 39.7582 157.259 41.3759 158.784 42.5581 159.748 43.7402 160.713 43.2114 160.557 43.7402 161.055 44.2398 161.576 45.067 161.593 45.5875 161.093 45.805 160.885 45.9437 160.607 45.9801 160.308 45.9801 159.842 43.8335 158.131 42.8691 157.539 41.9047 156.948 41.127 156.637 41.127 156.077 41.127 155.517 41.8736 155.891 41.9047 155.891 42.8691 156.762 47.3801 157.228 47.1623 154.366 47.1623 153.402 47.9089 153.309 46.9756 152.593 46.9756 152.593 45.8557 151.971 45.7935 151.691 45.7891 151.399 46.0224 151.159 46.3142 151.154 46.4287 151.152 46.5407 151.188 46.6334 151.255 47.2867 151.691 48.2511 152.593 48.3756 152.655 49.7133 153.309 50.7088 151.971 49.0911 151.131M43.6469 150.478C43.8335 150.789 43.6469 151.006 42.8069 150.944 41.967 150.882 40.3182 150.695 40.4737 150.104 40.6292 149.513 43.3669 150.104 43.5847 150.509M36.585 151.784C36.585 151.006 38.016 151.162 38.2649 151.411 38.5138 151.66 36.7094 152.593 36.585 151.784M41.0026 153.215C40.2559 153.775 39.9759 154.522 39.696 154.491 39.416 154.46 38.9493 154.086 38.576 153.931 38.2027 153.775 37.3005 153.495 37.2072 153.34 37.1139 153.184 37.5183 153.34 37.8605 153.029 39.0427 152.157 39.5404 151.598 40.0382 151.691 40.5359 151.784 40.7848 152.002 41.0959 152.064 41.407 152.126 42.1225 152.064 42.0914 152.064 41.8024 152.475 41.4446 152.833 41.0337 153.122M44.7979 154.708C45.0157 154.708 44.7979 155.051 44.3313 155.175 43.8647 155.3 42.1536 155.455 42.0914 154.926 42.0292 154.397 42.8691 153.557 43.7713 153.246 44.0513 153.06 44.2069 152.531 44.4869 152.406 44.7668 152.282 45.6379 152.842 45.5446 152.966 45.4512 153.091 44.7979 153.277 44.6735 153.682 44.5491 154.086 44.4557 154.491 44.6735 154.74M30.643 70.2146 24.8877 67.6325 27.3454 62.2194 33.0696 64.8015 34.2207 62.5305 21.0924 56.6196 20.0035 59.1084 24.8877 61.2239 22.4923 66.5125 17.6081 64.3037 16.5192 66.6992 29.5542 72.61ZM19.4747 82.6584C21.3802 83.2091 23.4261 82.9854 25.1677 82.0362 26.7693 81.0992 27.8995 79.5282 28.2787 77.712 28.66 76.4757 28.66 75.1529 28.2787 73.9166L25.4166 73.2011C25.9943 74.3587 26.1164 75.6908 25.7588 76.9342 25.5015 78.1002 24.753 79.0985 23.7056 79.6719 22.6088 80.2627 21.3231 80.3971 20.128 80.0452 18.9209 79.7923 17.8603 79.078 17.1725 78.0542 16.5294 77.0826 16.3367 75.8806 16.6437 74.7566 16.9072 73.5352 17.5759 72.4389 18.5414 71.6456L15.5548 71.1479C13.3927 73.4357 13.0235 76.8851 14.6527 79.5786 15.7545 81.187 17.4395 82.3028 19.3502 82.6895M36.9894 57.8018 24.8877 50.3355 23.4878 52.5754 35.5895 60.1972ZM40.1004 53.3531 33.0385 47.4423 44.3002 48.3445 45.7001 46.6645 34.7495 37.3316 33.1007 39.2915 40.1315 45.1713 28.932 44.2691 27.4699 46.0112 38.4205 55.3441ZM74.321 26.8788C77.0798 28.9273 80.9773 28.3515 83.0255 25.5926 83.2688 25.265 83.4794 24.9143 83.6539 24.5455 84.5309 22.8248 84.731 20.8378 84.2139 18.9769 83.7946 17.0964 82.6843 15.442 81.103 14.3416 78.3441 12.293 74.4467 12.8688 72.3981 15.6277 72.1552 15.9553 71.9446 16.306 71.77 16.6748 70.8872 18.3937 70.6868 20.3831 71.2101 22.2434 71.6279 24.1329 72.7376 25.7976 74.321 26.9099M74.1033 18.0747C74.5724 17.0683 75.4789 16.3339 76.5609 16.0837 77.6333 15.7861 78.7834 16.0046 79.6719 16.6748 80.6889 17.427 81.3792 18.5403 81.6007 19.7858 81.9395 20.9525 81.8399 22.2028 81.3207 23.3012 80.4238 25.1386 78.2076 25.9012 76.3699 25.0044 76.1755 24.9094 75.9894 24.7975 75.8143 24.67 74.8088 23.9123 74.1303 22.7997 73.9166 21.559 73.575 20.3926 73.6746 19.1412 74.1966 18.0436M13.8438 96.1911 25.5099 96.44 25.5099 93.7957 13.8438 93.4846 13.8438 89.4092 11.1995 89.4092 10.9195 100.204 13.5638 100.204ZM18.1369 111.186C18.59 110.809 18.9606 110.343 19.2258 109.817 19.3583 109.538 19.4625 109.246 19.5369 108.946 19.5369 108.479 19.7547 108.199 19.7858 108.044L20.0035 107.048 20.2213 105.991 20.2213 105.524C20.2882 105.256 20.382 104.995 20.5013 104.746 20.7062 104.232 21.226 103.915 21.7768 103.969 22.2827 103.897 22.7865 104.113 23.0834 104.529 23.4679 105.02 23.6956 105.616 23.7367 106.24 23.8431 107.147 23.7691 108.067 23.5189 108.946 23.295 109.762 22.9262 110.531 22.4301 111.217L25.5411 110.844C26.377 109.294 26.6622 107.506 26.3499 105.773 26.2384 104.457 25.6654 103.223 24.7322 102.289 23.833 101.419 22.5753 101.027 21.3412 101.231 20.1963 101.296 19.1532 101.91 18.5414 102.88 17.978 103.841 17.5884 104.894 17.3903 105.991 17.3903 106.364 17.2348 106.831 17.1103 107.422 17.0534 107.796 16.9489 108.162 16.7992 108.511 16.6795 108.926 16.3255 109.231 15.897 109.288 14.9638 109.288 14.4038 108.728 14.2171 107.297 14.0483 105.814 14.3417 104.315 15.0571 103.004L12.2261 103.346C11.6107 104.699 11.3845 106.197 11.5728 107.671 11.6566 108.947 12.1978 110.151 13.0972 111.062 13.9327 111.839 15.0824 112.184 16.2081 111.995 16.8927 111.907 17.5504 111.674 18.1369 111.31M63.7126 33.6918 59.7617 25.3855 69.6235 30.8919 71.6145 29.9586 65.3926 17.017 63.0593 18.1058 66.9792 26.381 57.304 20.9057 55.2508 21.7768 61.4727 34.7184ZM30.7986 124.439 28.4343 125.621 31.5452 131.843 28.2476 133.492 25.821 128.67 23.4878 129.821 25.9455 134.705 23.4878 135.949 20.3768 129.727 18.0125 130.91 22.2745 139.34 35.0606 132.901ZM29.6786 121.328 26.1321 121.141 24.5767 115.915 27.3765 113.737 26.5677 111.03 14.3727 120.363 15.0882 122.79 30.4564 123.941ZM18.2614 120.581 22.4923 117.47 23.5811 121.079ZM48.4067 44.3313 47.2867 41.0648 51.4865 37.6116 54.5975 39.3538 56.7752 37.5494 43.3358 29.9897 41.3759 31.6074 46.2912 46.229ZM49.2777 36.1806 46.3845 38.576 44.6735 33.5362ZM100.858 98.2133 119.99 112.555 119.99 106.52 100.858 92.1469ZM167.526 84.525 170.077 83.8717 168.366 77.0898 171.943 76.1876 173.281 81.5074 175.801 80.8852 174.463 75.5654 177.139 74.881 178.818 81.4763 181.369 80.823 179.036 71.5523 165.161 75.0366ZM162.984 69.8101 178.321 69.0324 177.325 66.3881 166.375 67.0414 174.214 59.4817 173.063 56.8063 161.988 67.508ZM159.157 61.7838 171.601 54.5042 170.263 52.2332 157.819 59.5128ZM179.036 99.3643C178.35 99.3133 177.661 99.4088 177.014 99.6443 176.499 99.9122 176.043 100.283 175.676 100.733 175.487 100.976 175.32 101.237 175.179 101.511L174.743 102.351 174.308 103.284 173.872 104.28 173.685 104.715C173.567 104.969 173.42 105.209 173.25 105.431 172.989 105.855 172.496 106.077 172.005 105.991 171.502 105.954 171.06 105.643 170.854 105.182 170.593 104.619 170.496 103.993 170.574 103.377 170.662 102.474 170.927 101.597 171.352 100.795 171.736 100.036 172.252 99.3513 172.877 98.7733L169.766 98.4933C168.665 99.8285 168.041 101.492 167.992 103.222 167.83 104.54 168.138 105.873 168.863 106.986 169.568 108.025 170.721 108.67 171.974 108.728 173.117 108.92 174.281 108.536 175.085 107.702 175.812 106.926 176.402 106.032 176.827 105.057L177.387 103.689C177.52 103.335 177.698 103.001 177.916 102.693 178.112 102.311 178.514 102.079 178.943 102.102 179.876 102.102 180.281 102.942 180.156 104.404 180.016 105.896 179.418 107.309 178.445 108.448L181.307 108.697C182.196 107.511 182.735 106.099 182.863 104.622 183.05 103.354 182.774 102.062 182.085 100.982 181.426 100.045 180.367 99.4701 179.223 99.4266M167.992 88.7559 173.748 88.3204 173.934 90.5292 168.459 94.729 168.708 97.84 174.494 93.3291C174.814 94.104 175.383 94.7498 176.112 95.1645 176.883 95.5798 177.761 95.7534 178.632 95.6623 179.774 95.6209 180.847 95.1017 181.587 94.2312 182.344 93.298 182.682 92.0934 182.521 90.9025L182.054 84.9605 167.806 86.0805ZM179.69 87.8538 179.938 90.9647C180.008 91.4678 179.886 91.9786 179.596 92.3958 179.29 92.7685 178.834 92.985 178.352 92.9868 177.878 93.0519 177.4 92.9038 177.045 92.5824 176.692 92.2132 176.492 91.7241 176.485 91.2136L176.236 88.1026ZM162.019 41.1892 160.619 39.416 149.326 48.1578 150.944 50.1799 158.131 44.4557 155.02 55.313 156.388 57.0241 167.588 48.1267 165.97 46.1046 158.815 51.7976ZM116.101 27.9987 118.372 25.2611 123.537 27.0032 123.537 30.5497 126.212 31.4519 125.59 16.0526 123.194 15.2437 113.488 27.1588ZM123.319 19.1325 123.505 24.4522 119.928 23.2389ZM97 0C43.4285 0 9.49393e-07 43.4285 9.49393e-07 97 9.49393e-07 150.572 43.4285 194 97 194 150.572 194 194 150.572 194 97 193.932 43.4568 150.543 0.0685583 97 9.49393e-07M97 190.267C45.4559 190.267 3.67094 148.482 3.67094 96.9378 3.67094 45.3937 45.4559 3.60872 97 3.60872 148.544 3.60872 190.329 45.3937 190.329 96.9378 190.329 148.482 148.544 190.267 97 190.267M136.323 34.034 130.661 30.9541 136.167 20.6568 133.772 19.4124 127.021 32.0119 135.109 36.3361ZM147.678 44.6113C149.36 44.3696 150.88 43.4755 151.909 42.1225L157.353 35.9006 155.331 34.2207 149.824 40.4426C149.267 41.1752 148.458 41.6742 147.553 41.8425 146.757 41.9427 145.957 41.6801 145.376 41.127 144.75 40.6283 144.384 39.8736 144.38 39.0738 144.433 38.1585 144.82 37.2949 145.469 36.6472L150.975 30.4253 148.984 28.7142 143.54 34.9362C142.358 36.142 141.689 37.7588 141.674 39.4471 141.871 42.5161 144.519 44.844 147.588 44.6464 147.608 44.6452 147.627 44.644 147.647 44.6424M104.093 16.0526 106.488 20.999 107.951 21.1857 111.497 17.017 110.222 26.7232 112.804 27.0654 114.701 12.8794 111.995 12.4439 107.608 17.8881 104.684 11.6661 102.071 11.3239 100.173 25.3544 102.786 25.6966ZM118.03 175.77C117.408 175.77 117.346 176.547 117.284 177.17L117.284 177.636C117.097 178.57 115.51 179.503 114.173 179.938L113.799 179.938C113.17 180.24 112.438 180.24 111.808 179.938 111.376 179.554 111.146 178.991 111.186 178.414 111.128 177.985 111.322 177.562 111.684 177.325 111.684 177.325 111.839 177.325 111.902 177.325 111.964 177.325 112.213 177.605 112.928 177.17 112.928 177.17 112.928 176.983 112.928 176.672 112.962 176.427 113.024 176.187 113.115 175.956L113.395 175.428 113.581 175.085C113.731 174.526 113.564 173.93 113.146 173.53 112.642 173.069 111.929 172.914 111.279 173.125 110.222 173.507 109.241 174.076 108.386 174.805 107.746 175.422 106.95 175.852 106.084 176.05 105.878 176.043 105.68 175.966 105.524 175.832 105.524 175.832 105.244 175.645 105.12 175.832 104.995 176.019 104.684 176.236 104.404 176.952 104.375 177.19 104.375 177.43 104.404 177.667 104.404 178.165 104.404 178.818 104.062 178.974 103.984 179.013 103.891 179.013 103.813 178.974 103.723 178.947 103.653 178.877 103.626 178.787 103.44 178.414 103.875 177.574 103.875 177.574L103.875 176.859C103.85 176.662 103.85 176.464 103.875 176.267 104.249 175.272 105.151 175.054 106.115 174.836 106.627 174.647 107.085 174.337 107.453 173.934 107.702 173.592 107.453 173.25 107.048 172.97 106.727 172.531 106.136 172.387 105.648 172.628 105.103 172.993 104.611 173.433 104.186 173.934 103.764 174.393 103.317 174.829 102.849 175.241L102.693 175.241C101.76 176.019 100.671 176.983 100.702 177.45 100.668 177.518 100.668 177.599 100.702 177.667 101.106 177.854 101.48 177.45 101.791 177.076 102.102 176.703 102.289 176.516 102.444 176.641 102.634 176.813 102.717 177.074 102.662 177.325 102.399 177.642 102.246 178.035 102.226 178.445 102.226 179.378 102.226 179.596 102.6 179.938L102.662 180.436C102.725 180.67 102.725 180.917 102.662 181.152L102.662 181.369C102.77 181.534 102.965 181.62 103.16 181.587 103.16 181.587 103.315 181.587 103.377 181.587 103.528 181.891 103.528 182.248 103.377 182.552 103.377 182.552 103.377 182.552 103.377 182.552 103.377 182.552 102.942 182.552 102.786 182.552 102.631 182.552 102.32 182.894 102.226 183.143L102.226 183.329C101.899 183.894 102.092 184.618 102.657 184.945 102.699 184.969 102.742 184.99 102.786 185.009 103.118 185.258 103.574 185.258 103.906 185.009 104.404 184.76 104.466 183.983 104.56 183.112L104.56 182.832C104.609 182.207 104.734 181.59 104.933 180.996 105.031 180.629 105.031 180.243 104.933 179.876L104.933 179.472C105.037 179.051 105.321 178.698 105.711 178.507 105.934 178.362 106.143 178.196 106.333 178.01L106.831 177.512C107.378 176.876 108.03 176.34 108.759 175.925 109.057 175.743 109.338 175.535 109.599 175.303 109.934 174.978 110.324 174.714 110.75 174.525 111.093 174.525 111.746 174.183 111.964 174.525 112.123 174.798 112.178 175.118 112.119 175.428 112.052 175.466 111.969 175.466 111.902 175.428 111.715 175.428 111.684 175.428 111.653 175.116 111.622 174.805 111.653 174.868 111.653 174.805 111.386 174.748 111.11 174.748 110.844 174.805 110.595 174.805 110.439 175.116 110.222 175.428 110.072 175.675 109.894 175.904 109.693 176.112 108.9 176.938 108.625 178.133 108.977 179.223 109.128 179.928 109.553 180.544 110.159 180.934L110.377 181.089C111.186 181.929 112.275 182.583 114.95 181.681 116.493 181.249 117.823 180.263 118.683 178.912 118.97 178.05 118.903 177.111 118.497 176.299 118.37 176.053 118.119 175.898 117.843 175.894M166.623 113.053 180.623 116.008 181.152 113.426 167.152 110.502ZM135.514 164.197C135.98 163.388 136.074 162.455 135.172 162.33 134.819 162.22 134.436 162.289 134.145 162.517 133.212 163.046 133.585 163.481 132.932 163.855 132.278 164.228 132.403 162.828 132.932 162.424 133.927 161.584 134.923 160.308 134.58 159.313 134.238 158.317 133.803 157.664 132.621 158.722 131.755 159.436 131.1 160.371 130.723 161.428 130.331 163.072 129.735 164.66 128.95 166.157 128.421 166.903 128.327 166.437 127.705 166.997 125.963 168.521 124.999 169.89 125.839 170.823 126.349 171.278 127.075 171.399 127.705 171.134 128.265 170.979 128.607 170.512 128.67 170.823 128.539 171.731 128.331 172.626 128.047 173.499 127.814 174.279 127.434 175.008 126.928 175.645 125.932 176.89 125.652 177.325 125.932 177.73 126.353 178.159 127.042 178.166 127.472 177.745 127.477 177.74 127.482 177.735 127.487 177.73 129.22 175.715 130.39 173.279 130.878 170.668 131.08 170.038 131.33 169.424 131.625 168.832 131.874 168.148 131.625 167.681 132.092 167.215 133.243 165.815 134.923 165.317 135.514 164.321M139.371 167.619C138.596 167.99 137.766 168.231 136.914 168.335 135.67 168.398 134.423 168.283 133.212 167.992 132.745 167.992 132.932 169.268 133.212 169.828 134.238 171.445 137.411 170.948 139.434 170.419 140.199 170.07 140.919 169.632 141.58 169.112 142.265 168.708 142.918 168.583 142.887 168.117 142.856 167.65 143.073 167.557 142.887 167.215 142.296 166.375 140.989 166.655 139.558 167.463M74.2277 112.524 93.3602 98.1511 93.3602 92.1469 74.2277 106.52ZM176.547 121.857 165.224 118.217 164.384 120.737 175.49 124.439 174.214 128.265 176.703 129.105 180.094 118.87 177.605 118.03ZM105.431 169.174C105.63 168.765 105.917 168.404 106.271 168.117 106.425 167.98 106.561 167.823 106.675 167.65 106.852 167.409 106.852 167.082 106.675 166.841 106.473 166.573 106.13 166.45 105.804 166.53 105.213 166.53 104.404 167.712 104 168.335 103.779 168.701 103.592 169.086 103.44 169.486 103.287 169.9 103.088 170.297 102.849 170.668 102.638 171.105 102.725 171.628 103.066 171.974 103.33 172.373 103.817 172.56 104.28 172.441 104.28 172.441 104.28 172.441 104.497 172.161 104.579 171.852 104.835 171.621 105.151 171.57 105.368 171.57 105.524 171.57 105.68 171.85 105.881 172.101 106.203 172.22 106.52 172.161 106.924 172.161 107.204 171.539 107.453 171.103L107.64 170.761C108.346 169.732 109.218 168.828 110.222 168.086 110.502 168.086 110.688 168.086 110.813 168.086 110.937 168.086 110.813 168.335 110.999 168.583L110.999 168.801C111.043 168.983 111.17 169.132 111.342 169.206 111.342 169.206 111.59 169.206 111.559 169.486 111.528 169.766 111.31 169.983 111.062 170.17 110.813 170.357 110.533 170.543 110.533 170.885 110.482 171.228 110.597 171.575 110.844 171.819 111.048 171.93 111.293 171.93 111.497 171.819 111.87 171.819 112.026 171.321 112.182 170.917 112.276 170.654 112.401 170.403 112.555 170.17 112.737 169.926 113.003 169.76 113.301 169.703 113.563 169.653 113.802 169.523 113.986 169.33 114.176 169.132 114.257 168.853 114.204 168.583 114.103 168.242 113.851 167.966 113.519 167.837 113.191 167.649 112.773 167.761 112.585 168.089 112.574 168.108 112.564 168.128 112.555 168.148 112.555 168.148 112.555 168.148 112.399 168.148 112.088 167.837 112.399 167.495 112.399 167.121 112.494 166.955 112.567 166.777 112.617 166.592 112.724 166.421 112.724 166.204 112.617 166.032 112.43 165.846 112.057 166.032 111.528 166.032 111.295 166.149 111.092 166.32 110.937 166.53 110.766 166.753 110.555 166.943 110.315 167.09 109.769 167.37 109.267 167.726 108.822 168.148 108.625 168.353 108.393 168.521 108.137 168.646 107.91 168.669 107.68 168.669 107.453 168.646 107.007 168.628 106.565 168.736 106.177 168.957L105.866 169.423C105.866 169.641 105.586 169.89 105.462 169.921 105.244 169.921 105.462 169.423 105.462 169.05ZM74.0099 97.2178 93.1424 82.8451 93.1424 76.8098 74.0099 91.1825ZM157.384 157.539C157.011 157.011 157.166 156.948 156.979 156.762 156.793 156.575 156.233 156.451 156.233 156.264 156.233 156.077 157.011 155.175 157.135 154.988 157.259 154.802 157.882 154.242 158.006 153.744 158.131 153.246 156.762 152.655 156.419 152.873 156.077 153.091 155.206 154.833 154.553 155.611 154.304 155.891 154.086 155.86 153.931 155.611 153.775 155.362 155.082 153.495 154.491 152.966 153.9 152.437 152.717 152.469 152.033 153.464 152.033 153.464 151.224 154.74 150.384 155.766 149.544 156.793 149.326 158.286 150.104 158.597 150.882 158.908 151.598 158.162 151.753 157.259 151.753 156.948 151.753 156.917 151.753 156.668 151.753 156.419 151.94 156.202 151.94 156.046 151.94 155.891 151.94 155.206 152.282 155.237 152.624 155.268 152.78 155.891 152.873 156.077 153.03 156.509 153.03 156.983 152.873 157.415 152.344 158.784 151.566 160.122 152.126 160.837 152.525 161.003 152.973 161.003 153.371 160.837 153.713 160.65 153.651 160.339 153.868 159.593 154.086 158.846 154.522 158.97 154.615 158.753 154.708 158.535 154.771 157.571 155.02 157.633 155.743 158.075 156.207 158.84 156.264 159.686 156.392 160.225 156.279 160.793 155.953 161.242 155.953 161.242 155.3 162.081 155.735 162.579 156.035 163.009 156.604 163.154 157.073 162.921 158.348 162.237 158.037 160.806 157.944 159.344 157.91 158.676 157.718 158.025 157.384 157.446M161.148 128.359 159.935 130.692 165.69 133.647 170.388 141.642 171.788 138.936 168.677 133.741 174.65 133.212 176.081 130.443 166.748 131.283ZM150.633 153.775C151.598 152.655 152.22 151.411 152.78 150.664 153.34 149.918 153.526 149.98 153.806 149.544 154.086 149.109 154.491 149.544 154.771 149.544 155.548 149.389 156.233 148.798 156.202 148.207 156.15 147.608 155.765 147.09 155.206 146.869 153.837 146.216 152.842 149.295 152.095 149.047 151.94 149.047 151.909 147.958 151.909 147.958 151.876 147.126 151.641 146.314 151.224 145.593 150.82 144.971 150.509 145.064 150.166 144.816 149.824 144.567 149.669 144.349 149.264 144.318 148.568 144.212 147.918 144.691 147.812 145.388 147.797 145.487 147.794 145.587 147.802 145.687 147.802 146.433 148.424 147.709 148.051 148.175 147.678 148.642 147.149 148.673 146.962 148.175 146.775 147.678 146.651 146.651 146.34 146.464 146.029 146.278 145.749 146.651 145.5 147.118 145.251 147.584 145.749 148.642 145.22 148.86 144.691 149.078 144.66 148.424 144.411 148.487 144.162 148.549 144.411 150.353 144.131 150.82 143.546 151.419 143.48 152.353 143.976 153.029 144.256 153.62 144.94 154.428 145.313 155.113 145.687 155.797 146.496 156.357 146.433 156.731 146.371 157.104 146.184 156.886 145.936 157.228 145.687 157.571 146.682 160.339 148.175 161.117 148.455 161.273 149.202 161.335 149.42 160.899 149.638 160.464 148.207 159.655 147.895 158.846 147.584 158.037 148.922 156.731 149.575 155.548 149.89 154.831 150.287 154.153 150.758 153.526M147.647 155.642C147.398 155.642 147.087 155.144 146.651 154.74 146.216 154.335 145.189 153.371 145.251 153.246 145.313 153.122 145.251 152.064 145.5 152.126 145.749 152.189 146.34 153.309 146.589 153.651 146.838 153.993 147.211 153.931 147.429 154.771 147.647 155.611 147.958 155.517 147.647 155.673M148.082 152.811C147.802 152.811 147.678 153.029 147.429 152.811 146.919 152.219 146.765 151.401 147.024 150.664 147.615 149.855 147.584 151.193 147.647 151.38 147.709 151.566 148.362 152.842 148.082 152.935M148.953 147.335C149.171 146.62 148.953 146.464 149.109 146.153 149.264 145.842 149.918 145.842 150.353 146.153 150.789 146.464 151.038 147.087 150.758 147.429 150.478 147.771 149.98 147.429 149.762 147.429 149.544 147.429 149.762 148.3 150.011 148.238 150.26 148.175 150.602 148.58 150.695 149.015 150.789 149.451 150.695 149.544 150.695 149.7 150.695 149.855 151.224 149.98 151.318 150.198 151.411 150.415 151.1 151.038 150.726 151.006 150.353 150.975 150.26 149.824 150.011 149.606 148.767 148.362 148.891 147.491 148.984 147.18M149.171 152.437 148.984 152.437C148.58 152.437 148.642 151.131 148.673 151.1 149.264 150.602 150.166 152.78 149.171 152.624M100.858 82.8762 119.99 97.2489 119.99 91.1825 100.858 76.8098ZM97 31.3275C60.7301 31.3275 31.3275 60.7301 31.3275 97 31.3275 133.27 60.7301 162.673 97 162.673 133.27 162.673 162.673 133.27 162.673 97 162.621 60.7513 133.249 31.3788 97 31.3275M97 160.402C61.9671 160.402 33.5674 132.002 33.5674 96.9689 33.5674 61.936 61.9671 33.5362 97 33.5362 132.033 33.5362 160.433 61.936 160.433 96.9689 160.433 96.9792 160.433 96.9897 160.433 97 160.398 132.019 132.019 160.398 97 160.433M97 37.3316C64.029 37.3316 37.3005 64.0601 37.3005 97.0311 37.3005 130.002 64.029 156.731 97 156.731 129.971 156.731 156.699 130.002 156.699 97.0311 156.699 97.0208 156.699 97.0103 156.699 97 156.648 64.0552 129.945 37.3658 97 37.3316M134.705 92.8935C136.479 93.9441 137.066 96.2338 136.015 98.0079 134.965 99.7818 132.675 100.369 130.901 99.318 130.669 99.1808 130.453 99.019 130.256 98.8355L127.767 96.9689 127.767 103.004 134.736 108.231C136.51 109.281 137.097 111.571 136.046 113.345 134.996 115.119 132.706 115.706 130.932 114.655 130.7 114.518 130.484 114.356 130.287 114.173L127.799 112.306 127.799 118.217 134.767 123.443C136.541 124.494 137.128 126.783 136.077 128.558 135.027 130.332 132.737 130.918 130.963 129.868 130.731 129.73 130.515 129.569 130.318 129.385L100.951 107.36 100.951 113.55 131.065 136.136C132.807 137.239 133.325 139.545 132.222 141.287 131.12 143.029 128.813 143.547 127.072 142.444 126.9 142.336 126.737 142.213 126.585 142.078L100.951 122.852 100.951 143.385C100.951 145.515 99.2237 147.242 97.0933 147.242 94.9629 147.242 93.2357 145.515 93.2357 143.385L93.2357 122.852 67.508 142.078C65.9684 143.449 63.6087 143.313 62.2374 141.773 60.8661 140.233 61.0024 137.874 62.542 136.502 62.6938 136.367 62.8565 136.245 63.0282 136.136L93.1424 113.55 93.1424 107.515 63.7749 129.541C62.1254 130.778 59.7854 130.444 58.5484 128.794 57.3115 127.145 57.6456 124.805 59.2951 123.568L66.2636 118.217 66.2636 112.306 63.7749 114.173C62.2673 115.579 59.9051 115.497 58.4987 113.99 57.0922 112.482 57.174 110.12 58.6816 108.713 58.8785 108.53 59.0944 108.368 59.3262 108.231L66.2947 103.004 66.2947 96.9689 63.806 98.8355C62.0318 99.886 59.7421 99.2993 58.6915 97.5251 57.7984 96.0166 58.0753 94.0897 59.3573 92.8935L93.1424 67.508 93.1424 61.4727 63.7749 83.4984C62.0007 84.549 59.711 83.9622 58.6604 82.1881 57.7673 80.6796 58.0441 78.7526 59.3262 77.5564L66.2947 72.33 66.2947 63.6504C66.2947 61.52 68.0219 59.7928 70.1523 59.7928 72.2827 59.7928 74.0099 61.52 74.0099 63.6504L74.0099 66.5125 93.1424 52.1398 93.1424 44.8913C93.1424 42.7609 94.8696 41.0337 97 41.0337 99.1304 41.0337 100.858 42.7609 100.858 44.8913L100.858 52.1709 119.99 66.5436 119.99 63.6815C119.99 61.5511 121.717 59.8239 123.848 59.8239 125.978 59.8239 127.705 61.5511 127.705 63.6815L127.705 72.3611 134.674 77.5876C136.448 78.6381 137.034 80.9278 135.984 82.702 134.934 84.4759 132.644 85.0626 130.87 84.012 130.638 83.8748 130.422 83.7131 130.225 83.5295L100.858 61.5038 100.858 67.508ZM677.911 77.3387C678.751 77.152 679.249 76.3432 679.84 75.4099 680.888 73.1417 683.19 71.7206 685.689 71.8012 687.337 71.8012 688.333 73.0767 689.453 74.5699 690.635 76.8098 692.987 78.1846 695.519 78.1164 698.63 77.8364 701.555 74.2899 704.074 71.1479L706.003 68.8457C709.27 65.1748 724.078 52.6065 729.118 51.6421 731.513 51.1754 732.975 51.2377 733.66 51.8287 734.344 52.4198 734.406 53.9131 734.344 55.873L734.344 57.5529C734.441 58.9899 735.2 60.3005 736.397 61.0994 737.268 61.8461 737.984 62.5305 737.797 63.526 737.393 65.8592 735.309 66.9169 733.1 68.0369 730.891 69.1568 728.682 70.2768 728.06 72.7656 727.214 75.3001 727.631 78.0859 729.18 80.263 730.434 81.5631 732.257 82.1473 734.033 81.8185 736.926 81.4763 738.668 78.7075 740.504 75.5965 741.59 73.7069 742.893 71.9523 744.393 70.3701 746.097 68.6945 748.381 67.737 750.77 67.6947 752.808 67.6371 754.78 66.9409 756.401 65.7037 758.099 64.4537 759.095 62.4626 759.076 60.3528 758.75 57.5819 757.135 55.1267 754.721 53.7264 752.391 51.8826 749.006 52.2776 747.161 54.609 747.108 54.6765 747.056 54.7453 747.006 54.8153 746.446 55.3441 745.917 55.8419 745.606 55.8108L745.295 55.5619C743.366 52.8242 745.046 50.3977 746.85 47.7845 747.752 46.5843 748.505 45.2786 749.09 43.8958 749.799 42.4831 749.666 40.7951 748.748 39.5093 747.441 37.9849 744.579 37.6427 740.255 38.4827 738.28 39.084 736.475 40.1511 734.997 41.5937 733.395 43.0742 731.529 44.2358 729.491 45.0157 724.98 46.4875 720.699 48.5818 716.767 51.2377 715.025 52.5393 713.065 53.5192 710.981 54.1309 709.17 54.3147 707.347 54.3147 705.537 54.1309 701.648 53.8198 697.261 53.4776 695.457 54.9086L692.346 58.0196C691.008 59.6373 689.608 61.2861 688.613 61.3483L687.991 61.0683C686.622 59.6995 688.364 57.1485 690.044 54.6597L690.697 53.6953C692.744 50.8326 695.373 48.4365 698.412 46.6645 699.797 45.7947 701.063 44.7491 702.177 43.5536 703.763 41.8774 704.115 39.3793 703.048 37.3316 701.847 35.0472 699.399 33.7005 696.826 33.9096 692.222 34.3762 684.382 41.2826 680.742 45.5446 678.605 48.1242 676.71 50.8942 675.08 53.8198 673.425 56.7802 671.44 59.5455 669.169 62.0638 666.681 64.6148 667.365 69.0013 669.169 72.2056 670.666 75.6522 674.2 77.7565 677.942 77.432M301.764 42.6825C303.164 42.6825 303.817 41.7492 304.875 41.6248 309.261 41.0959 313.99 42.7447 315.95 41.3759 323.541 36.0561 320.585 29.5231 312.186 29.2431 305.789 29.3614 299.883 32.6947 296.475 38.1094 293.862 42.0914 300.271 42.6825 301.671 42.6825M280.298 41.8736C290.222 38.7627 282.632 27.0965 273.672 28.4031 271.384 28.5434 269.135 29.0584 267.014 29.9275 264.93 31.0475 265.708 32.2919 264.308 33.8473 262.801 35.1574 262.378 37.3242 263.281 39.1049 264.93 43.678 272.085 44.4869 280.267 41.9047M1049.86 118.217C1047.4 117.501 1033.71 121.857 1026.5 122.261 1023.76 122.417 1022.95 121.017 1022.89 119.461 1022.7 114.079 1039.47 114.701 1039.25 109.039 1038.94 100.671 1033.03 97.6222 1024.44 99.0221 1024.44 99.0221 1013.93 101.231 1004.47 102.133 996.505 102.911 986.27 109.382 988.541 114.826 990.812 120.27 998.185 120.208 1003.6 116.599 1005.43 115.386 1005.12 114.701 1006.18 113.084 1007.24 111.466 1009.29 111.715 1010.32 110.782 1013.02 108.013 1014.36 106.177 1016.23 108.542 1016.91 109.413 1015.45 114.359 1014.92 115.666 1013.78 118.769 1011.57 121.369 1008.7 123.008 999.119 127.083 988.417 129.79 987.546 136.292 987.359 137.785 991.03 142.327 993.395 143.073 995.759 143.82 997.377 141.922 1002.14 139.465 1004 138.5 1008.36 139.745 1010.19 138.998 1013.3 137.66 1017.1 133.927 1018 135.389 1019.78 138.314 1018.31 146.216 1013.68 152.095 1010.91 155.611 1006.9 158.691 1004.1 158.317 1003.04 158.162 996.568 159.064 996.132 163.792 995.426 167.505 997.582 171.165 1001.17 172.348 1011.16 175.459 1016.73 166.717 1023.88 158.908 1027.13 155.363 1029.5 151.099 1030.79 146.464 1031.63 141.829 1032.78 142.389 1032.72 140.429 1032.72 136.572 1030.57 134.954 1031.6 134.207 1034.93 131.314 1041.18 132.745 1042.58 132.589 1044.85 132.341 1050.17 132.776 1053.22 130.847 1059.13 127.145 1052.6 119.181 1049.73 118.403M905.354 91.5558C911.016 87.9471 914.687 82.2229 909.523 78.3964 907.616 76.5793 904.959 75.7816 902.368 76.2498 894.59 76.4676 895.492 80.4808 890.204 80.7919 887.902 80.7919 890.204 72.3611 894.652 71.4589 903.985 69.3746 914.563 64.4593 916.118 56.2152 917.394 49.4644 916.709 42.9625 905.416 45.8246 897.514 47.5571 890.213 51.3574 884.262 56.8374 874.929 65.7659 866.218 76.7476 857.072 81.2896 851.161 84.245 852.125 81.1341 846.277 82.4718 829.944 86.2983 819.118 92.0536 821.389 100.671 823.069 106.675 829.011 108.324 832.34 109.008 836.446 109.817 840.086 108.013 839.65 110.284 839.215 112.555 831.749 119.43 826.74 125.434 822.633 129.647 817.768 133.046 812.398 135.452 801.79 140.149 798.523 141.922 799.083 145.438 799.737 149.731 804.092 151.66 808.79 151.038 814.078 150.446 838.188 137.287 854.21 117.035 857.613 113.657 861.262 110.537 865.129 107.702 869.018 104.093 869.516 100.702 873.591 98.991 885.755 93.8579 898.043 96.2845 905.23 91.7425M316.697 110.782C307.053 112.306 302.666 114.546 299.711 111.59 296.755 108.635 302.822 106.831 303.008 106.831 312.746 106.831 339.438 86.4227 323.759 72.0189 318.408 67.1036 322.359 62.4683 313.772 63.3082 313.026 63.3082 304.439 65.6103 302.791 64.3659 301.304 62.7924 301.374 60.3114 302.948 58.8247 303.585 58.2224 304.406 57.8513 305.279 57.7707 311.066 56.8996 320.834 56.9618 321.923 56.6196 332.594 53.5087 331.256 41.0648 318.19 44.7357 310.91 46.7267 305.466 48.1267 301.702 46.1046 301.391 45.949 297.595 43.7402 296.102 44.2691 294.609 44.7979 295.915 46.9134 292.773 47.1623 289.631 47.4112 277.218 46.6956 270.125 49.6822 267.014 50.9266 260.108 48.8111 257.059 51.051 254.011 53.2909 249.22 61.9083 257.277 65.3303 260.793 66.7925 267.481 59.3262 277.032 58.6106 281.698 58.2684 283.254 54.2242 287.733 57.1485 289.476 58.2995 288.573 58.8595 287.733 59.6684 279.084 62.8711 270.682 66.7082 262.597 71.1479 255.317 75.5654 248.877 79.703 251.988 87.356 252.673 89.0048 258.21 92.5202 253.544 94.729 248.877 96.9378 242.811 101.355 242.282 105.057 242.114 107.658 242.114 110.266 242.282 112.866 242.967 119.088 250.775 117.719 250.526 120.177 250.526 121.266 244.647 122.106 240.851 124.47 238.331 126.056 238.082 130.692 238.3 132.527 238.642 135.638 240.447 134.736 246.638 134.736 256.562 134.736 259.673 133.461 271.525 129.696 274.802 128.62 278.278 128.29 281.698 128.732 284.809 129.572 283.72 133.647 280.112 134.705 272.676 136.883 241.816 146.216 255.753 155.548 259.968 157.401 264.659 157.879 269.161 156.917 271.65 156.14 277.498 151.909 280.329 154.273 283.16 156.637 277.81 167.059 283.907 170.606 287.858 172.908 291.933 173.716 293.022 170.606 294.764 165.784 293.924 152.78 295.853 151.224 301.546 146.682 321.083 151.815 323.665 143.633 326.776 134.114 321.394 130.038 318.159 130.567 312.341 131.501 303.413 134.238 298.062 133.958 295.946 133.958 296.569 130.318 297.377 127.736 299.275 121.514 314.612 125.372 325.625 124.812 333.869 124.377 333.247 125.776 338.598 125.963 346.157 126.212 351.322 119.181 346.966 110.626 345.318 107.515 324.35 109.537 316.697 110.626M253.668 110.626C249.189 106.986 258.397 100.111 260.886 100.173 265.459 100.173 258.521 114.515 253.668 110.626M284.965 96.44C283.72 103.284 285.898 108.697 284.249 109.942 281.76 111.808 278.027 111.59 275.29 112.648 270.188 114.484 265.957 116.755 264.868 116.226 262.317 115.075 266.268 114.235 266.797 111.217 268.725 100.515 268.757 94.9779 271.992 92.9868 275.227 90.9958 277.716 90.9647 279.614 89.6581 283.44 87.076 284.934 84.3695 285.4 85.1783 285.908 88.9292 285.76 92.7395 284.965 96.44M283.098 75.3788C277.032 79.9208 268.321 86.516 266.081 82.534 263.841 78.552 281.636 67.6013 285.307 68.7213 287.858 69.4679 287.236 72.2989 283.098 75.3788M300.271 83.1251C300.8 80.6363 299.057 76.9031 299.928 74.9743 301.266 71.8634 308.235 71.5523 308.453 72.7033 308.67 73.8544 306.026 78.0853 307.395 80.9474 308.764 83.8095 310.195 86.4849 313.43 86.0494 315.328 85.8005 314.737 88.2582 313.15 90.8714 311.968 92.8624 302.604 103.315 299.68 100.826 297.595 99.0844 297.004 89.5337 300.271 83.1251M1073.81 83.4673C1070.36 73.17 1049.58 83.4673 1046.84 78.0542 1046.28 76.9342 1051.85 71.2101 1051.54 71.5834 1055.63 67.2386 1058.59 61.964 1060.19 56.2152 1061.37 51.1443 1059.44 49.9933 1058.79 46.8823 1058.77 44.3375 1058.1 41.8404 1056.83 39.6337 1053.88 35.5298 1048.17 34.5905 1044.06 37.536 1043.47 37.9619 1042.93 38.4572 1042.45 39.0115 1038.85 42.8691 1035.27 52.3576 1030.88 52.6687 1026 53.0109 1023.82 50.5532 1024.66 47.8467 1025.9 44.0202 1030.88 38.5138 1030.23 36.0872 1029.82 34.6562 1026.34 33.9718 1022.82 34.9984 1019.31 36.025 1016.26 43.9891 1012.43 42.2158 1010.66 41.407 1011.78 37.145 1010.35 36.2428 1006.37 33.754 1001.36 46.0423 997.003 46.509 989.35 47.3178 987.048 50.6155 984.964 56.6507 983.439 61.0683 982.599 68.6591 980.982 73.9166 979.084 79.983 980.515 86.3605 978.275 87.8226 976.035 89.2848 976.16 87.3249 973.267 87.8226 969.067 88.3826 961.445 106.955 964.462 118.652 965.054 120.861 968.569 124.874 971.804 124.034 977.777 122.23 972.053 111.59 974.76 105.928 976.564 102.071 990.719 100.702 999.865 98.0266 1005.1 96.0456 1010.55 94.668 1016.1 93.9201 1026.62 93.1735 1036.17 90.3114 1042.64 89.5959 1046.16 89.2226 1049.92 90.0937 1053.5 89.3781 1057.57 88.5693 1056.14 93.5157 1057.92 94.7601 1062.58 97.8711 1069.15 98.5555 1072.04 95.3512 1074.85 92.0884 1075.54 87.505 1073.81 83.5606M994.857 73.0767C993.177 78.9253 996.661 77.6498 993.27 83.0629 991.341 86.1738 992.15 89.5337 989.786 88.6004 987.981 87.8538 989.506 83.3428 989.444 78.9564 989.444 72.7344 989.195 64.6459 990.19 64.3037 991.901 63.7126 996.163 58.424 997.19 59.8861 998.932 62.3749 995.354 70.059 994.857 73.0767M1006.58 76.592C1004.75 75.5343 1003.47 75.7832 1003.88 72.7033 1004.87 65.9214 1009.57 60.2595 1012.9 59.8861 1019.99 58.8284 1012.9 65.4548 1012.31 66.6058 1010.91 69.0635 1008.39 77.6187 1006.58 76.592M1015.23 79.703C1015.23 79.703 1015.23 77.9609 1015.23 77.8675 1013.93 75.0366 1020.15 69.5613 1020.62 69.5924 1026.09 70.0901 1019.43 85.5516 1015.23 79.703M1042.17 58.6106C1039.69 58.6106 1037.01 62.126 1039.25 64.0237 1041.49 65.9214 1040.37 68.7524 1038.75 71.2723 1038.1 72.33 1035.36 73.3877 1034.89 74.3833 1034.24 75.9387 1036.08 78.4275 1035.55 80.0452 1035.02 81.6629 1030.17 83.1562 1028.52 80.9785 1025.9 77.8675 1032.16 72.7344 1032.19 70.339 1032.19 57.8951 1037.51 54.0686 1039.59 52.9798 1044.23 50.5221 1043.92 48.5311 1046.47 47.94 1049.58 47.2245 1052.04 50.6155 1052.29 54.5664 1052.53 58.5173 1050.89 62.6549 1047.81 62.9038 1044.73 63.1527 1044.26 58.5795 1042.21 58.5173M919.136 125.621C912.954 125.415 906.847 124.196 901.061 122.012 887.808 118.217 880.653 108.884 877.293 108.137 873.933 107.391 871.32 115.386 871.724 120.208 872.876 133.958 894.963 141.456 908.901 144.318 914.283 145.407 921.718 143.509 927.069 143.136 932.419 142.762 937.397 144.256 938.704 141.207 940.01 138.158 941.815 138.283 941.317 134.985 940.228 127.612 930.988 124.968 919.136 125.496M480.302 134.829C477.191 132.341 479.12 135.825 470.347 134.612 467.859 134.269 456.535 130.63 450.81 129.447 446.486 128.111 442.439 126.003 438.864 123.225 436.313 121.234 432.362 121.639 436.407 115.977 438.864 112.555 434.416 109.942 436.967 107.888 439.518 105.835 443.78 103.813 446.486 101.449 449.597 98.5866 452.957 93.2668 457.655 88.0093 462.352 82.7518 463.877 68.348 458.557 65.7037 454.886 63.8993 449.908 64.8326 443.002 64.4904 439.455 64.3348 435.473 70.7123 436.127 65.0815 436.562 61.1928 436.127 59.6995 439.238 57.8951 443.935 55.1264 462.165 55.0952 459.583 45.9801 457.53 38.6382 447.139 47.0378 441.664 43.5536 439.113 41.967 440.482 34.0029 433.949 37.5183 433.047 37.9849 429.034 39.5404 428.256 40.8159 427.478 42.0914 427.914 47.4734 427.354 47.5356 421.144 48.1118 414.991 49.1514 408.937 50.6466 401.128 52.6687 394.595 49.8688 390.022 54.5664 388.047 56.162 386.364 58.0883 385.045 60.2595 382.867 64.6148 386.6 69.5924 392.013 69.779 394.346 69.779 405.235 61.535 410.461 60.0417 416.496 58.2995 422.905 56.7752 424.554 58.7973 425.394 59.7928 425.114 62.406 423.776 65.0192 418.923 75.0055 413.323 74.5388 409.03 76.9342 408.097 77.4631 407.381 75.4721 408.47 73.8233 409.901 71.5834 413.634 69.0635 413.354 68.2235 413.074 67.3836 405.546 68.4102 399.511 71.3345 397.476 72.3655 395.6 73.6858 393.942 75.2543 388.933 79.4852 385.667 93.2357 387.72 104.902 389.524 114.577 389.213 122.821 395.404 124.097 402.777 125.621 402.622 118.528 401.159 107.391 400.836 102.126 402.354 96.9135 405.453 92.6446 406.168 91.4936 407.07 84.1517 416.403 84.8983 416.808 84.8983 417.274 87.0138 415.221 88.0093 412.546 89.3781 409.87 92.8002 410.057 94.6979 410.243 96.5956 412.608 98.9599 413.728 101.729 414.848 104.497 409.435 106.675 415.781 109.973 416.279 110.222 413.634 113.27 411.986 113.084 411.208 113.084 410.928 111.746 410.181 111.808 407.879 112.088 407.07 118.186 407.07 118.901 405.001 123.135 401.974 126.83 398.235 129.696 391.484 136.171 385.166 143.082 379.32 150.384 374.187 157.073 378.014 161.459 387.16 160.868 391.235 160.619 398.235 151.535 401.813 147.522 404.333 144.598 409.808 138.563 413.168 137.754 416.528 136.945 411.954 159.53 413.51 161.895 416.248 165.784 424.741 167.152 424.772 160.557 424.772 157.446 424.212 153.806 424.025 149.326 424.025 145.842 424.741 141.642 424.834 138.469 424.834 133.927 425.021 129.479 426.172 129.136 428.785 128.701 430.371 132.589 435.131 136.572 446.268 145.904 466.241 151.94 480.022 151.286 488.298 150.913 491.844 145.064 484.409 138.189 482.729 136.603 481.485 135.514 480.582 134.798M432.86 97.1244C433.576 94.6046 435.162 88.9737 431.46 87.6049 427.758 86.236 428.131 77.7742 431.242 78.552 436.998 79.9519 445.708 77.9609 446.206 79.2364 448.291 84.4628 443.095 91.6802 438.647 95.7245 436.998 97.1867 435.691 100.049 434.696 100.951 432.051 103.346 431.585 101.666 432.86 97.1244M617.589 73.5122C610.465 71.8012 600.79 80.2008 597.213 76.9342 595.75 75.5654 597.897 71.9256 597.928 69.5924 598.068 66.1955 595.579 63.2597 592.204 62.8416 590.244 62.8416 589.84 60.2906 592.017 59.7306 594.634 59.0695 597.315 58.7043 600.013 58.6418 606.234 58.0818 609.625 57.0552 612.456 50.9577 613.141 48.2555 611.844 45.4419 609.345 44.2069 605.737 42.4647 595.657 44.2069 585.173 46.2601 573.849 48.6555 561.872 50.5844 560.285 55.1575 559.508 57.3974 557.548 60.135 556.77 62.9349 555.619 66.9792 555.183 70.5879 553.317 72.4545 547.499 78.3653 547.375 88.3204 545.477 85.3028 544.171 83.2495 540.904 84.0273 538.851 83.965 537.886 83.965 537.513 81.3518 538.384 80.2008 539.255 79.0497 539.566 79.9208 540.966 79.0186 544.762 76.5609 548.962 71.2101 549.21 67.9436 549.801 59.7306 551.824 53.2287 547.468 49.2777 543.296 46.126 537.977 44.904 532.847 45.9179 529.322 46.3743 525.925 47.5381 522.861 49.34 518.225 52.4509 517.696 59.0151 516.079 67.1347 514.716 71.3112 513.677 75.5856 512.968 79.9208 512.47 86.3605 511.972 95.4756 511.848 99.9243 511.537 110.284 512.439 117.284 516.079 123.879 517.976 127.301 517.758 132.714 523.016 131.998 527.371 131.407 522.269 115.852 522.207 108.293 521.741 105.49 522.577 102.627 524.478 100.515 525.163 99.9865 525.536 98.431 526.998 98.8355 528.46 99.2399 526.998 104 529.176 103.595 532.971 102.942 534.091 97.9022 537.389 99.0844 540.002 100.018 537.389 104.653 534.807 107.795 529.891 114.017 528.927 123.785 537.451 124.439 541.091 124.719 544.264 119.243 545.104 114.173 545.726 110.19 544.886 107.951 545.695 104.84 546.348 102.351 548.277 101.48 549.304 98.3999 550.137 95.0824 551.177 91.8199 552.415 88.6315 554.312 84.525 557.33 80.1385 559.197 76.7476 560.867 73.1439 563.082 69.8179 565.761 66.8858 568.436 64.4282 572.605 62.3749 575.654 63.7749 577.831 64.7081 570.769 70.8056 566.85 76.2187 561.213 83.8359 558.456 93.2052 559.072 102.662 559.228 106.893 559.072 118.652 562.401 120.581 564.336 121.982 566.825 122.364 569.089 121.608 575.311 119.741 570.738 108.262 573.445 102.506 574.036 101.262 574.378 99.0844 576.556 99.7377 578.733 100.391 578.111 125.185 577.614 139.776 577.492 148.38 578.021 156.98 579.2 165.504 579.542 168.615 580.009 171.725 584.8 171.725 591.613 171.725 591.426 157.197 591.302 148.175 591.302 140.709 591.551 129.51 593.977 125.216 596.404 120.923 604.337 116.288 609.128 114.204 613.919 112.119 617.185 105.213 619.643 102.258 622.971 98.2755 624.403 86.7027 624.465 82.5962 624.465 76.9965 622.349 74.601 617.714 73.4811M535.398 68.1302C536.098 71.5075 535.544 75.0232 533.842 78.0231 533.002 80.3563 537.482 81.6629 534.216 83.3117 529.786 85.5747 526.886 90.0131 526.594 94.9779 526.345 96.4089 524.603 96.2845 524.105 94.9779 522.525 90.8229 522.437 86.2488 523.856 82.0362 526.283 75.8143 526.811 71.3034 528.896 67.2902 531.509 62.2194 535.74 59.5128 536.953 60.5083 539.318 62.3749 535.18 65.8592 535.429 68.0991M578.329 80.543C576.494 85.1783 573.414 87.5738 571.205 85.925 569.587 84.7428 575.187 77.2453 577.427 72.7344 580.258 67.1036 581.222 67.788 582.747 68.5969 584.271 69.4057 580.787 74.1966 578.267 80.543M606.266 101.604C602.937 104.715 600.977 106.271 598.426 106.395 597.088 106.395 593.884 103.875 594.351 102.289 595.471 98.2755 593.977 97.0622 594.351 94.8534 595.159 91.2447 600.261 91.5247 603.31 90.9336 607.417 90.1559 609.532 88.1337 610.559 90.9336 610.416 94.8936 608.835 98.6656 606.11 101.542M778.675 119.741C773.885 119.088 772.453 124.874 771.116 129.541L770.058 133.056C767.476 139.869 754.068 145.127 742.744 146.589L739.633 147.055C734.157 147.927 729.833 148.58 724.389 144.722 722.025 143.042 720.78 137.411 721.651 132.278 721.729 128.865 723.779 125.806 726.909 124.439 727.998 124.097 728.216 124.439 728.558 125.154 729.367 126.71 730.518 127.767 736.553 125.154 737.082 124.937 737.517 123.754 738.326 121.452 738.88 119.609 739.642 117.834 740.597 116.164L743.366 112.586 745.233 110.097C747.031 105.994 746.483 101.241 743.801 97.6533 740.504 93.5381 735.271 91.4783 730.051 92.2402 721.745 93.1113 713.283 97.4978 705.817 101.386 698.35 105.275 691.631 108.728 686.684 107.951 685.166 107.607 683.8 106.777 682.795 105.586 681.862 104.684 680.96 103.782 679.684 103.937 678.005 104.155 675.92 106.395 672.716 111.497 671.919 113.236 671.335 115.064 670.974 116.941 670.009 120.737 668.796 125.496 666.712 126.492 666.121 126.772 665.436 126.772 664.845 126.492 664.182 126.216 663.694 125.636 663.538 124.937 662.73 121.826 666.961 115.915 666.992 115.884 667.023 115.852 668.827 110.502 668.827 110.502 669.154 108.944 669.689 107.438 670.414 106.022 674.614 98.8977 681.769 98.4622 689.328 97.9955 693.478 97.2333 697.383 95.4834 700.715 92.8935 702.954 90.6536 700.715 87.4493 698.972 84.8983L698.63 84.4317C695.706 80.1385 692.408 78.6764 688.426 79.9208 683.806 82.0437 679.504 84.7972 675.64 88.1026 671.86 91.0904 667.925 93.8735 663.85 96.44L662.45 97.2489C654.206 101.978 644.686 107.888 644.468 111.622 644.422 112.35 644.764 113.049 645.37 113.457 648.077 115.448 651.592 112.742 654.548 110.346 656.881 108.511 659.059 106.8 660.148 107.888 660.493 108.186 660.695 108.615 660.708 109.071 660.708 109.911 660.023 110.968 658.592 112.182L657.939 112.804C655.487 114.891 653.786 117.719 653.086 120.861 650.97 127.861 652.152 129.696 654.112 132.745L656.072 136.105C656.688 137.93 656.785 139.89 656.352 141.767L656.352 143.571C656.981 144.997 658.402 145.905 659.961 145.873 660.739 145.873 661.205 145.873 661.579 146.869 662.179 149.43 661.569 152.124 659.93 154.18 659.93 154.18 659.65 154.18 659.401 153.682 658.779 152.157 656.103 152.126 655.108 152.126 652.401 152.126 651.219 154.117 650.161 155.922L649.384 157.197C644.935 163.419 647.953 167.619 651.468 170.792 653.54 173.31 657.024 174.159 660.023 172.877 664.005 171.632 665.654 165.628 667.365 159.25L667.925 157.197C669.092 152.44 670.837 147.843 673.12 143.509 674.635 140.959 675.432 138.045 675.422 135.078L675.889 131.967C677.146 128.844 679.756 126.463 682.982 125.496 684.895 124.639 686.718 123.598 688.426 122.386L692.875 119.088C697.865 114.911 703.536 111.627 709.643 109.382 712.154 108.391 714.571 107.173 716.86 105.742 719.856 103.716 723.182 102.231 726.691 101.355L727.344 101.355C730.144 100.92 735.371 100.08 736.677 102.071 737.533 104.368 737.533 106.898 736.677 109.195 736.273 109.865 735.47 110.183 734.717 109.973 733.224 109.693 733.193 108.791 733.255 107.391 733.464 106.475 733.221 105.514 732.602 104.809 730.633 103.995 728.511 103.614 726.38 103.689 724.545 103.689 722.834 105.524 720.843 107.64 719.371 109.319 717.713 110.822 715.896 112.119 708.959 116.661 705.972 126.523 706.563 133.896 706.818 139.466 709.282 144.705 713.407 148.455L714.776 149.918C719.816 157.415 727.469 163.824 748.997 160.277 763.183 157.944 774.88 151.909 781.102 143.727 784.409 137.487 785.09 130.188 783 123.443 782.387 121.395 780.682 119.859 778.582 119.461" fill="#7F0000" fill-rule="nonzero" fill-opacity="1" transform="matrix(1.00733 0 0 1 239.434 318)"/></g></g></g></g></g></svg>